<?xml version="1.0" encoding="UTF-8"?> <svg xmlns="http://www.w3.org/2000/svg" xmlns:xlink="http://www.w3.org/1999/xlink" id="Layer_1" data-name="Layer 1" viewBox="0 0 416.36 171.04"> <defs> <style>.cls-1{stroke:#000;stroke-miterlimit:10;stroke-width:0.1px;}.cls-2{fill:#e9c4ab;}.cls-3{fill:url(#linear-gradient);}.cls-4{fill:#46bd85;}.cls-5{fill:#8d41ff;}.cls-6{fill:#c4e2fe;}.cls-14,.cls-7{fill:#4a96fb;}.cls-8{fill:url(#linear-gradient-2);}.cls-9{fill:#ffd548;}.cls-10{fill:url(#linear-gradient-3);}.cls-11{fill:none;stroke:#fff;stroke-linecap:square;stroke-linejoin:round;stroke-width:2.5px;}.cls-12{fill:url(#linear-gradient-4);}.cls-13{fill:#fff;}.cls-14{opacity:0.5;}.cls-15{fill:url(#linear-gradient-5);}.cls-16{fill:#e84e1b;}.cls-17{fill:url(#linear-gradient-6);}</style> <linearGradient id="linear-gradient" x1="360.34" y1="106.47" x2="369.5" y2="119.46" gradientUnits="userSpaceOnUse"> <stop offset="0" stop-color="#8d41ff"></stop> <stop offset="0.25" stop-color="#8b40fc"></stop> <stop offset="0.44" stop-color="#863ef2"></stop> <stop offset="0.61" stop-color="#7c39e2"></stop> <stop offset="0.77" stop-color="#6f33cc"></stop> <stop offset="0.92" stop-color="#5e2baf"></stop> <stop offset="1" stop-color="#53269b"></stop> </linearGradient> <linearGradient id="linear-gradient-2" x1="58.56" y1="22.61" x2="97.5" y2="159.28" gradientTransform="translate(27.65 -16.24) rotate(13.26)" gradientUnits="userSpaceOnUse"> <stop offset="0.46" stop-color="#46bd85"></stop> <stop offset="0.68" stop-color="#3faa71"></stop> <stop offset="1" stop-color="#32874c"></stop> </linearGradient> <linearGradient id="linear-gradient-3" x1="275.15" y1="394.92" x2="349.02" y2="334.75" gradientTransform="translate(48.12 -322.61) rotate(13.26)" gradientUnits="userSpaceOnUse"> <stop offset="0" stop-color="#4a96fb"></stop> <stop offset="0.07" stop-color="#63a4fc"></stop> <stop offset="0.51" stop-color="#fff"></stop> </linearGradient> <linearGradient id="linear-gradient-4" x1="81.76" y1="92.22" x2="54.9" y2="12.98" gradientUnits="userSpaceOnUse"> <stop offset="0" stop-color="#db3f32"></stop> <stop offset="0.05" stop-color="#e35f37"></stop> <stop offset="0.1" stop-color="#ea7e3b"></stop> <stop offset="0.17" stop-color="#f19a3f"></stop> <stop offset="0.24" stop-color="#f6b043"></stop> <stop offset="0.33" stop-color="#fac145"></stop> <stop offset="0.44" stop-color="#fdcc47"></stop> <stop offset="0.59" stop-color="#ffd348"></stop> <stop offset="1" stop-color="#ffd548"></stop> </linearGradient> <linearGradient id="linear-gradient-5" x1="243.41" y1="39.97" x2="256.62" y2="28.98" gradientUnits="userSpaceOnUse"> <stop offset="0" stop-color="#a8260c"></stop> <stop offset="0.07" stop-color="#b32d0f"></stop> <stop offset="0.27" stop-color="#ca3c14"></stop> <stop offset="0.48" stop-color="#db4618"></stop> <stop offset="0.71" stop-color="#e54c1a"></stop> <stop offset="1" stop-color="#e84e1b"></stop> </linearGradient> <linearGradient id="linear-gradient-6" x1="323.67" y1="21.93" x2="268.09" y2="54.41" gradientTransform="matrix(1, 0, 0, 1, 0, 0)" xlink:href="#linear-gradient-2"></linearGradient> </defs> <path class="cls-1" d="M366.88,92.41s2.7,2.39,1.24,8.85l-9.44.6,4.07-8.8Z"></path> <path class="cls-2" d="M363.6,103.26h0a2.39,2.39,0,0,0,2.5-2.38l.65-2.93-5.43.54v2.39A2.39,2.39,0,0,0,363.6,103.26Z"></path> <path class="cls-2" d="M360,95.65c-.16,3.11.77,5.31,3.07,5.31s4.94-3.1,4.94-5.4a3.84,3.84,0,0,0-3.85-4.08A4.24,4.24,0,0,0,360,95.65Z"></path> <path class="cls-2" d="M358.9,105.55c-12.38.11-19.39-12.66-19.39-12.66l2.8-1.69a39.79,39.79,0,0,0,7.81,6.56s4.9,2.9,8.63,2.82,3,2.9,3,2.9Z"></path> <path class="cls-2" d="M339.51,92.89l1.86-7.38s.85,1.45.94,5.69Z"></path> <path class="cls-2" d="M370,156.47l.28,2.78h8.9l0,0c-.32-.79-1-1.19-2.18-1.44s-2.72-.57-3.34-1.48Z"></path> <path class="cls-1" d="M379.16,159.21a2.58,2.58,0,0,0-2.18-1.44,4.09,4.09,0,0,0-2.74,1.42Z"></path> <path class="cls-1" d="M374.24,159.19s-3.18-2.95-4.24-3.33l.31,3.39Z"></path> <path class="cls-2" d="M368.12,101.26s1.78-.13,5.6,3.09c3.47,2.94,15.85,4.35,15.85,4.35s-.85,1.87-1.84,3.58c0,0-15.93,0-19.49-6.62Z"></path> <path class="cls-2" d="M389.57,108.7l5-1.31s1.38,1.47-6.87,4.89Z"></path> <path class="cls-2" d="M387.73,112.28c.65.33,4.26-.57,4.26-.57a8,8,0,0,0-2.74-.52A2,2,0,0,0,387.73,112.28Z"></path> <path class="cls-2" d="M358.66,156.47l-.28,2.78h-8.9l0,0c.32-.79,1-1.19,2.17-1.44s2.73-.57,3.34-1.48Z"></path> <path class="cls-1" d="M360.58,93.6s3.59,1.09,5.22.11a4.84,4.84,0,0,0,1.62,3.15s1.85-2.06-.54-4.45A3.79,3.79,0,0,0,360.58,93.6Z"></path> <ellipse class="cls-2" cx="367.13" cy="97.23" rx="1.25" ry="0.91" transform="translate(99.36 366.56) rotate(-60)"></ellipse> <path class="cls-3" d="M367.6,101.26c2.43.24,4.91,2.6,4.4,5l-4.44,12.55-10.83,1.14-.56-15.24c0-2.44,1.37-4.8,5.15-3.82h0s2.39,2.34,4.75.22Z"></path> <path class="cls-1" d="M349.53,159.21a2.55,2.55,0,0,1,2.17-1.44,4.1,4.1,0,0,1,2.75,1.42Z"></path> <path class="cls-1" d="M354.45,159.19s3.17-2.95,4.23-3.33l-.3,3.39Z"></path> <path class="cls-4" d="M367.56,118.8s4.64,5.21,8.55,38l-9.24.16-4.28-30.62L361,156.75H351l5.63-39Z"></path> <path class="cls-5" d="M361.32,100.88s-8.07-.33-11.87-3.91l-1,7s6.52,4.56,11.3,2.17S361.32,100.88,361.32,100.88Z"></path> <path class="cls-5" d="M379.1,112.28s-7.71-1.08-11.19-5l-1.84-6.19s2.79-.79,6.78,2a19.26,19.26,0,0,0,7.42,3.26Z"></path> <rect class="cls-6" x="28.56" y="74.41" width="110.26" height="72.81" transform="translate(-23.19 22.15) rotate(-13.26)"></rect> <rect class="cls-7" x="28.56" y="74.41" width="110.26" height="72.81" transform="translate(-23.19 22.15) rotate(-13.26)"></rect> <rect class="cls-8" x="28.56" y="74.41" width="110.26" height="72.81" transform="translate(-23.19 22.15) rotate(-13.26)"></rect> <path class="cls-9" d="M128.75,63.09,129,63l-.17-.1.11-.17-.28.07L70.21,29.42a7.74,7.74,0,0,0-10.28,2.42l-37.41,56-.29.06.18.1-.11.17.28-.07,64.75,37Z"></path> <rect class="cls-10" x="226.67" y="61.07" width="110.26" height="72.81" rx="6.47" transform="translate(30.32 -62.74) rotate(13.42)"></rect> <circle class="cls-9" cx="281.82" cy="137.6" r="16.59"></circle> <path class="cls-11" d="M289.47,135.06a3.87,3.87,0,0,0-7.73,0,3.87,3.87,0,0,0-7.73,0c-.23,3.53,7.67,10.85,7.73,10.9h0C281.79,145.91,289.69,138.59,289.47,135.06Z"></path> <path class="cls-4" d="M76.63,102.71,39,159.05,145.74,133.9,86.91,100.29A7.74,7.74,0,0,0,76.63,102.71Z"></path> <path class="cls-12" d="M60.34,31.69,22.71,88,129.45,62.88,70.62,29.27A7.74,7.74,0,0,0,60.34,31.69Z"></path> <rect class="cls-13" x="120.13" y="39.24" width="110.26" height="72.81" rx="6.33" transform="translate(61.31 -77.5) rotate(30)"></rect> <rect class="cls-14" x="184.42" y="11.35" width="6.12" height="88.51" rx="2.28" transform="translate(45.58 190.17) rotate(-60)"></rect> <rect class="cls-14" x="178.56" y="21.78" width="6.12" height="88.51" rx="2.28" transform="translate(33.62 190.3) rotate(-60)"></rect> <rect class="cls-14" x="283.46" y="32.21" width="6.12" height="88.51" rx="2.28" transform="translate(148.74 339.06) rotate(-77.26)"></rect> <path class="cls-2" d="M229.1,23.43l-2-3.31s-.85.77.17,2.64"></path> <path class="cls-2" d="M226.55,24.79l-6.62-3.9s1.53-1.61,7.3,1.1l2.46,2Z"></path> <circle class="cls-1" cx="257.13" cy="21.01" r="3.55"></circle> <circle class="cls-1" cx="249.71" cy="16.38" r="3.55"></circle> <circle class="cls-1" cx="247.34" cy="22.3" r="3.55"></circle> <circle class="cls-1" cx="246.38" cy="19.04" r="3.55"></circle> <path class="cls-2" d="M287.57,58.3l-.41,3,9.35,2.25,0,0c-.14-.92-.74-1.5-1.92-2.07s-4.15-2.58-4.56-3.7Z"></path> <path class="cls-1" d="M296.47,63.5a2.78,2.78,0,0,0-1.92-2.07,4.42,4.42,0,0,0-3.24.79Z"></path> <polygon class="cls-1" points="291.31 62.22 287.16 61.3 287.33 59.52 292.38 61.8 293.25 62.67 291.31 62.22"></polygon> <path class="cls-2" d="M273.67,54.94l-.41,3,9.36,2.25-.05-.06c-.13-.91-.74-1.5-1.92-2.06s-2.72-1.28-3.13-2.4Z"></path> <path class="cls-1" d="M282.57,60.12a2.74,2.74,0,0,0-1.92-2.06,4.44,4.44,0,0,0-3.24.79Z"></path> <polygon class="cls-1" points="273.26 57.93 273.43 56.48 279.3 58.71 279.3 59.3 273.26 57.93"></polygon> <path class="cls-2" d="M253.09,24.83h0a2.58,2.58,0,0,1-2.7-2.58l-.71-3.16,5.87.58v2.58A2.58,2.58,0,0,1,253.09,24.83Z"></path> <path class="cls-2" d="M257,16.6c.17,3.37-.84,5.74-3.32,5.74s-5.34-3.35-5.34-5.84a4.14,4.14,0,0,1,4.15-4.41A4.59,4.59,0,0,1,257,16.6Z"></path> <path class="cls-2" d="M257.8,22.89s1.29.77,6,3.34C276.17,32.91,281,30.92,281,30.92s-.92,2-2,3.88c0,0-17.22,0-21.07-7.16Z"></path> <path class="cls-2" d="M281,30.92l5.43-1.4s1.5,1.58-7.42,5.28Z"></path> <path class="cls-2" d="M279,34.8c.7.35,4.61-.62,4.61-.62a8.48,8.48,0,0,0-3-.55A2.11,2.11,0,0,0,279,34.8Z"></path> <path class="cls-1" d="M256.35,14.39s-3.87,1.17-5.63.12a5.26,5.26,0,0,1-1.77,3.4s-2-2.23.59-4.81A4.09,4.09,0,0,1,256.35,14.39Z"></path> <ellipse class="cls-2" cx="249.28" cy="18.31" rx="0.99" ry="1.35" transform="translate(24.24 127.09) rotate(-30)"></ellipse> <path class="cls-15" d="M257.23,22.89c2.63.25,5.31,2.81,4.75,5.39l-2.93,13.25-13.57,1.55-.6-16.48c0-2.63,1.48-5.18,5.56-4.13h0s2.58,2.53,5.13.24Z"></path> <path class="cls-16" d="M277,35.57S267.35,41,257.57,29.4l-2-6.69s3.93-1.85,7.34,2.14c4.12,4.81,17,5.72,17,5.72Z"></path> <path class="cls-17" d="M259.4,39.77s12.89-3.16,19,2.29c4.34,3.85,15.08,17.23,15.08,17.23l-8.29-.91L272.13,48.23s-13,4.8-20.62,4.57h0Z"></path> <path class="cls-4" d="M281.86,56.78S276.92,36.2,271,35.09c-9.06-1.72-25.53,8-25.53,8s0,.17-.07.26c-1.19,4.93.6,8.9,6.1,9.46a12.1,12.1,0,0,0,6.89-1.46c3.05-1.63,7-4.08,9.42-8.44L272.61,56Z"></path> <path class="cls-16" d="M250.44,22.47s-2.89,17.44-11.11,14.86-15.26-12-15.26-12l5.87-2.58L240,30.05S243.24,20.06,250.44,22.47Z"></path> </svg> 