<?xml version="1.0" encoding="UTF-8"?> <svg xmlns="http://www.w3.org/2000/svg" width="403" height="34" viewBox="0 0 403 34" fill="none"> <path d="M24.5546 0C24.5546 0 12.8509 10.8549 16.7644 25.2252C16.7644 25.2252 22.2233 29.0967 25.0261 33.5288C24.6227 33.0049 20.243 28.1065 13.2281 24.9161C6.2133 21.7256 8.28265 22.6057 8.28265 22.6057C6.60399 21.8954 5.26025 20.5704 4.52638 18.9018C4.52638 18.9018 1.37782 13.3486 0 12.6623C0.60247 12.9086 1.86504 13.7887 3.82961 12.8667C4.17538 12.7619 6.88387 11.866 8.62842 15.6433C9.00562 14.3859 14.7422 6.2133 24.5546 0" fill="#2795CB"></path> <path d="M41.3139 11.908V18.3937H43.1475H44.0801C45.0921 18.4635 46.0921 18.1408 46.8724 17.4926C47.1851 17.2037 47.4328 16.8515 47.599 16.4595C47.7652 16.0675 47.8461 15.6446 47.8363 15.2189C47.8513 14.7544 47.7561 14.2929 47.5585 13.8723C47.3609 13.4516 47.0666 13.0837 46.6995 12.7986C45.9399 12.1961 44.7978 11.8975 43.2628 11.8975L41.3139 11.908ZM39.5694 11.908H37.6153C36.4325 11.8419 35.2581 12.1419 34.2519 12.7672C33.8574 13.0386 33.5387 13.4063 33.326 13.8353C33.1133 14.2644 33.0137 14.7406 33.0365 15.2189C33.026 15.645 33.106 16.0684 33.2713 16.4613C33.4366 16.8541 33.6833 17.2074 33.9952 17.4979C34.7994 18.1591 35.8281 18.4839 36.8661 18.4042H37.7463H39.5694V11.908ZM39.5694 8.2041H41.3139V10.2996H42.6498C45.2693 10.2996 47.0889 10.7834 48.1087 11.7508C48.5756 12.1781 48.9516 12.6949 49.2144 13.2706C49.4773 13.8462 49.6216 14.4689 49.6387 15.1015C49.6558 15.734 49.5454 16.3636 49.314 16.9526C49.0827 17.5416 48.7351 18.0781 48.2921 18.5299C47.3945 19.4939 45.6954 19.9758 43.1947 19.9758H41.3139V24.6908H39.5694V19.9758H37.7201C36.6103 19.9996 35.5022 19.8763 34.4248 19.6091C33.5264 19.346 32.74 18.7935 32.1878 18.0375C31.5653 17.2335 31.2362 16.2408 31.2553 15.2242C31.2508 14.5703 31.3836 13.9227 31.6454 13.3235C31.9071 12.7242 32.2918 12.1866 32.7746 11.7456C33.7735 10.7956 35.5966 10.3189 38.244 10.3154H39.5694V8.2041Z" fill="#676362"></path> <path d="M58.9479 13.7258C58.287 13.7196 57.6315 13.8463 57.0205 14.0983C56.4094 14.3503 55.8552 14.7224 55.3908 15.1927C54.8433 15.721 54.4279 16.3708 54.1782 17.0895C53.9285 17.8082 53.8516 18.5756 53.9536 19.3296C54.0557 20.0835 54.3338 20.8029 54.7655 21.4294C55.1972 22.0559 55.7703 22.5719 56.4385 22.9357C57.2192 23.3451 58.0874 23.559 58.9689 23.559C59.8504 23.559 60.7186 23.3451 61.4993 22.9357C62.2595 22.5243 62.892 21.9117 63.3276 21.165C63.8812 20.221 64.1001 19.1179 63.9489 18.0341C63.7978 16.9503 63.2854 15.9491 62.4947 15.1927C62.0298 14.7272 61.4766 14.3595 60.8675 14.1112C60.2583 13.8629 59.6057 13.7389 58.9479 13.7467M58.9479 12.2065C59.8679 12.1815 60.7828 12.3505 61.633 12.7026C62.4833 13.0546 63.2499 13.5817 63.883 14.2497C65.0464 15.4465 65.6886 17.0553 65.669 18.7243C65.6493 20.3934 64.9695 21.9867 63.7782 23.1558C62.4684 24.3876 60.7381 25.0734 58.9401 25.0734C57.1421 25.0734 55.4118 24.3876 54.102 23.1558C52.9162 21.9909 52.24 20.4038 52.2213 18.7416C52.2027 17.0794 52.8431 15.4776 54.0025 14.2864C54.6343 13.6129 55.4018 13.0811 56.2543 12.7262C57.1068 12.3713 58.0249 12.2013 58.9479 12.2275" fill="#676362"></path> <path d="M77.8807 18.8338H70.3891V24.717H68.7284V12.5H70.3891V17.3512H77.8807V12.5H79.5414V24.717H77.8807V18.8338Z" fill="#676362"></path> <path d="M88.7151 14.9256L84.9483 23.3811H92.3299L88.7151 14.9256ZM83.34 23.3811L88.3064 12.5H89.1709L94.1163 23.3811H95.688V26.273H94.0902V24.7013H83.4133V26.3254H81.7788V23.3811H83.34Z" fill="#676362"></path> <path d="M121.107 11.2684L119.734 12.2637C119.002 11.3522 118.068 10.6239 117.005 10.1368C115.902 9.65243 114.709 9.41121 113.505 9.42951C112.161 9.41988 110.836 9.7458 109.649 10.3777C108.51 10.9545 107.55 11.8312 106.873 12.9134C106.218 13.9964 105.88 15.2417 105.898 16.5072C105.878 17.4551 106.062 18.3963 106.439 19.2662C106.816 20.1361 107.377 20.9142 108.083 21.547C109.59 22.9225 111.576 23.6507 113.615 23.5745C114.771 23.5955 115.918 23.3635 116.975 22.8947C118.032 22.4259 118.974 21.7317 119.734 20.8607L121.107 21.8456C120.231 22.9005 119.118 23.7334 117.859 24.2765C116.484 24.8673 115.001 25.1635 113.505 25.1461C110.46 25.1461 108.057 24.1839 106.296 22.2595C104.827 20.6576 104.033 18.5497 104.08 16.3763C104.062 15.2266 104.292 14.0864 104.755 13.0339C105.218 11.9814 105.903 11.0413 106.763 10.2782C108.596 8.61089 111.007 7.72386 113.484 7.80546C115 7.78272 116.503 8.09394 117.885 8.71703C119.153 9.29586 120.259 10.1774 121.107 11.2841" fill="#676362"></path> <path d="M130.416 13.7257C129.756 13.7191 129.101 13.8455 128.491 14.0976C127.881 14.3496 127.327 14.722 126.864 15.1926C126.387 15.6417 126.009 16.1854 125.754 16.7888C125.498 17.3923 125.372 18.0423 125.382 18.6974C125.378 19.5661 125.612 20.4194 126.057 21.1649C126.493 21.9116 127.126 22.5242 127.886 22.9357C128.666 23.345 129.535 23.5589 130.416 23.5589C131.298 23.5589 132.166 23.345 132.947 22.9357C133.709 22.525 134.343 21.9123 134.78 21.1649C135.226 20.4194 135.46 19.5661 135.456 18.6974C135.465 18.0415 135.336 17.391 135.079 16.7875C134.822 16.184 134.442 15.6408 133.963 15.1926C133.499 14.7262 132.946 14.3579 132.336 14.1095C131.727 13.8611 131.074 13.7377 130.416 13.7467M130.416 12.2065C131.335 12.1812 132.25 12.3501 133.099 12.7022C133.948 13.0543 134.714 13.5816 135.346 14.2496C135.926 14.8402 136.383 15.5394 136.692 16.3071C137 17.0748 137.155 17.8959 137.145 18.7233C137.136 19.5508 136.964 20.3682 136.638 21.1288C136.312 21.8894 135.839 22.5782 135.246 23.1557C133.937 24.3875 132.206 25.0733 130.408 25.0733C128.61 25.0733 126.88 24.3875 125.57 23.1557C124.384 21.9908 123.708 20.4037 123.69 18.7416C123.671 17.0794 124.311 15.4775 125.471 14.2863C126.102 13.6012 126.873 13.0593 127.732 12.6969C128.59 12.3346 129.516 12.1602 130.448 12.1855" fill="#676362"></path> <path d="M152.247 24.717H140.203V12.5H141.864V23.2344H149.355V12.5H151.011V23.2344H153.808V26.6449H152.247V24.717Z" fill="#676362"></path> <path d="M157.69 12.5V21.537L167.151 12.5H167.282V24.717H165.622V15.7638L156.234 24.717H156.034V12.5H157.69Z" fill="#676362"></path> <path d="M177.184 13.7047C176.291 13.698 175.411 13.9198 174.627 14.3491C173.855 14.7716 173.212 15.3964 172.768 16.1565C172.312 16.8988 172.07 17.7529 172.07 18.624C172.07 19.4951 172.312 20.3492 172.768 21.0915C173.217 21.8599 173.865 22.4932 174.643 22.9251C175.416 23.3571 176.288 23.5809 177.173 23.5747C178.073 23.5772 178.96 23.3538 179.751 22.9251C180.527 22.5245 181.174 21.9147 181.621 21.1648C182.167 20.2074 182.383 19.0971 182.236 18.0048C182.09 16.9126 181.588 15.8987 180.809 15.1192C180.33 14.653 179.762 14.2872 179.14 14.0434C178.517 13.7996 177.852 13.6827 177.184 13.6994M183.806 12.4945V24.7168H182.171V22.6212C181.53 23.3833 180.733 23.9995 179.835 24.4286C178.947 24.8382 177.979 25.0458 177.001 25.0364C176.135 25.0507 175.276 24.8916 174.474 24.5686C173.671 24.2456 172.941 23.7651 172.327 23.1556C171.705 22.5695 171.212 21.8601 170.879 21.0726C170.546 20.2851 170.381 19.4369 170.394 18.5821C170.385 17.7326 170.555 16.8907 170.893 16.1116C171.232 15.3324 171.731 14.6336 172.359 14.0609C172.98 13.4504 173.718 12.97 174.527 12.6479C175.337 12.3259 176.203 12.1686 177.074 12.1854C178.072 12.1647 179.059 12.3871 179.952 12.8334C180.845 13.2797 181.615 13.9366 182.197 14.7472V12.4997L183.806 12.4945Z" fill="#676362"></path> <path d="M198.443 24.717H196.678L192.366 15.8214L188.091 24.717H186.315L192.219 12.5H192.518L198.443 24.717Z" fill="#676362"></path> <path d="M202.676 18.7762V23.3916H204.583C206.825 23.3916 207.947 22.6425 207.947 21.1441C207.941 20.7002 207.816 20.2659 207.585 19.8868C207.35 19.4829 206.978 19.1764 206.537 19.0224C205.738 18.8199 204.914 18.7369 204.091 18.7762H202.676ZM202.619 17.3407H204.19C205.18 17.3132 206.169 17.4082 207.135 17.6236C207.742 17.7928 208.294 18.1202 208.734 18.5725C209.173 19.0248 209.485 19.5857 209.637 20.1979C209.789 20.8101 209.775 21.4516 209.598 22.0569C209.421 22.6622 209.086 23.2096 208.628 23.6431C207.889 24.3556 206.763 24.6908 205.254 24.6908H200.968V12.5H202.613L202.619 17.3407Z" fill="#676362"></path> <path d="M221.552 18.8338H214.055V24.717H212.4V12.5H214.055V17.3512H221.552V12.5H223.207V24.717H221.552V18.8338Z" fill="#676362"></path> <path d="M237.97 12.5H239.631V24.717H237.97V12.5ZM228.609 18.7866V23.4021H230.51C232.76 23.4021 233.882 22.6529 233.879 21.1546C233.873 20.7106 233.749 20.2763 233.517 19.8973C233.282 19.4934 232.911 19.1869 232.47 19.0329C231.669 18.8305 230.843 18.7475 230.018 18.7866H228.609ZM228.546 17.3512H230.117C231.11 17.3237 232.103 17.4187 233.072 17.6341C233.68 17.8033 234.232 18.1307 234.671 18.583C235.111 19.0353 235.422 19.5962 235.574 20.2084C235.726 20.8205 235.713 21.4621 235.535 22.0674C235.358 22.6727 235.023 23.22 234.565 23.6536C233.821 24.366 232.695 24.7013 231.186 24.7013H226.896V12.5H228.541L228.546 17.3512Z" fill="#676362"></path> <path d="M241.701 12.5H243.691L247.118 16.9688L250.507 12.5H252.498L248.113 18.2732L253.053 24.717H251.036L247.112 19.5882L243.215 24.717H241.24L246.117 18.2837L241.701 12.5Z" fill="#676362"></path> <path d="M275.491 24.717H273.678V12.0547L262.195 24.717H261.802V8.2041H263.541V21.0812L275.098 8.2041H275.491V24.717Z" fill="#676362"></path> <path d="M288.604 18.8338H281.112V24.717H279.457V12.5H281.112V17.3512H288.604V12.5H290.265V24.717H288.604V18.8338Z" fill="#676362"></path> <path d="M295.613 19.1115V23.3916H297.395C297.998 23.4136 298.601 23.3625 299.192 23.2397C299.567 23.131 299.893 22.8983 300.119 22.5796C300.414 22.1435 300.547 21.6182 300.497 21.0942C300.446 20.5702 300.214 20.0802 299.841 19.7087C299.354 19.2969 298.729 19.0837 298.091 19.1115H295.613ZM295.613 13.8726V17.676H296.698C297.341 17.6993 297.985 17.6625 298.621 17.566C298.952 17.4676 299.247 17.2746 299.469 17.0107C299.744 16.685 299.886 16.268 299.867 15.8424C299.882 15.3804 299.733 14.928 299.448 14.5641C299.239 14.2669 298.931 14.0535 298.579 13.9616C297.955 13.8824 297.326 13.8526 296.698 13.8726H295.613ZM297.709 24.7275H293.968V12.5H297.636C299.033 12.5 300.044 12.8073 300.669 13.422C300.965 13.6971 301.2 14.0304 301.361 14.401C301.521 14.7715 301.603 15.1714 301.602 15.5752C301.636 16.1279 301.484 16.676 301.171 17.1326C300.857 17.5892 300.401 17.9279 299.873 18.0951C301.546 18.6539 302.382 19.7366 302.382 21.3432C302.382 23.5889 300.81 24.7136 297.667 24.717" fill="#676362"></path> <path d="M316.145 17.3722C315.975 16.6409 315.646 15.9559 315.181 15.3658C314.721 14.8355 314.146 14.4179 313.499 14.1451C312.809 13.8419 312.063 13.6866 311.31 13.6893C310.119 13.6614 308.959 14.0715 308.051 14.8419C307.314 15.5196 306.79 16.3969 306.542 17.367L316.145 17.3722ZM316.145 20.6623L317.544 21.359C317.148 22.1358 316.616 22.835 315.972 23.4231C315.373 23.9484 314.68 24.3555 313.929 24.6228C313.11 24.9107 312.246 25.0509 311.378 25.0367C309.282 25.0367 307.641 24.3836 306.453 23.0774C305.31 21.8848 304.672 20.297 304.672 18.6453C304.672 17.7845 304.845 16.9325 305.179 16.1394C305.514 15.3462 306.003 14.6279 306.619 14.0266C307.235 13.4253 307.965 12.9531 308.766 12.6379C309.567 12.3227 310.423 12.1708 311.283 12.191C312.285 12.1538 313.281 12.3487 314.194 12.7604C315.108 13.1721 315.913 13.7894 316.548 14.5642C317.507 15.7467 318.011 17.2335 317.968 18.7553H306.38C306.373 19.4022 306.496 20.0438 306.742 20.6422C306.987 21.2406 307.351 21.7836 307.81 22.2392C308.26 22.6847 308.796 23.035 309.384 23.269C309.973 23.503 310.603 23.616 311.236 23.6013C311.889 23.6033 312.538 23.4935 313.154 23.2765C313.724 23.0844 314.256 22.7936 314.725 22.4173C315.279 21.9133 315.755 21.3287 316.135 20.6832" fill="#676362"></path> <path d="M333.559 15.0408L332.244 15.8109C331.694 15.1112 330.986 14.552 330.179 14.1795C329.371 13.807 328.486 13.6317 327.597 13.6682C326.157 13.6223 324.756 14.1369 323.689 15.1036C323.191 15.5374 322.792 16.0738 322.521 16.6761C322.25 17.2784 322.112 17.9322 322.117 18.5927C322.117 19.4798 322.366 20.349 322.835 21.1021C323.309 21.884 323.994 22.5174 324.81 22.9305C325.675 23.3718 326.636 23.5931 327.607 23.5749C328.493 23.5981 329.372 23.4168 330.176 23.0452C330.98 22.6736 331.688 22.1216 332.244 21.4322L333.559 22.2494C332.935 23.1407 332.085 23.8495 331.096 24.3031C329.982 24.8029 328.771 25.0515 327.55 25.0313C325.686 25.0933 323.871 24.4325 322.484 23.1872C321.843 22.6313 321.332 21.9427 320.984 21.1692C320.637 20.3957 320.462 19.5558 320.472 18.708C320.466 17.5429 320.791 16.4001 321.41 15.4127C322.04 14.4008 322.935 13.5802 323.998 13.0395C325.134 12.464 326.392 12.1711 327.665 12.1856C328.502 12.1842 329.333 12.3096 330.132 12.5575C330.85 12.7705 331.529 13.0958 332.144 13.5215C332.708 13.9316 333.187 14.4476 333.553 15.0408" fill="#676362"></path> <path d="M335.298 12.5H343.774V13.8621H340.369V24.717H338.708V13.8621H335.298V12.5Z" fill="#676362"></path> <path d="M347.683 12.5V21.537L357.144 12.5H357.275V24.717H355.614V15.7638L346.226 24.717H346.027V12.5H347.683Z" fill="#676362"></path> <path d="M373.007 24.717H360.968V12.5H362.624V23.2344H370.121V12.5H371.776V23.2344H374.568V26.6449H373.007V24.717Z" fill="#676362"></path> <path d="M378.456 12.5V21.537L387.912 12.5H388.043V24.717H386.388V15.7638L377 24.717H376.796V12.5H378.456Z" fill="#676362"></path> <path d="M393.156 7.59593H394.728C394.987 7.98086 395.35 8.28425 395.775 8.47082C396.288 8.67707 396.837 8.77689 397.389 8.76419C397.909 8.78435 398.428 8.69696 398.913 8.50749C399.348 8.29643 399.725 7.98375 400.014 7.59593H401.528C401.324 8.31303 400.846 8.92098 400.197 9.28808C399.343 9.76741 398.372 9.9979 397.394 9.95342C396.405 9.99565 395.422 9.76552 394.555 9.28808C393.886 8.92299 393.384 8.31265 393.156 7.58545M393.392 12.489V21.5366L402.869 12.4995H403V24.7166H401.344V15.7633L391.935 24.7166H391.736V12.4995L393.392 12.489Z" fill="#676362"></path> </svg> 